<svg xmlns="http://www.w3.org/2000/svg" viewBox="0 0 163.83 20.76"><defs><style>.cls-1{fill:#2c509f;}.cls-2{fill:#bab755;}</style></defs><title>Ресурс 7</title><g id="Слой_2" data-name="Слой 2"><g id="Слой_1-2" data-name="Слой 1"><path class="cls-1" d="M6.21,16.4a9.73,9.73,0,0,1-4-.6A3.74,3.74,0,0,1,0,12.39,10.41,10.41,0,0,1,.3,9.76L2.36,0H6L4,9.65c-.32,1.51-.33,2.5,0,3a2.59,2.59,0,0,0,2,1c.32,0,.7,0,1.13,0h4.32l-.57,2.72Z"/><path class="cls-1" d="M18.81,3H15.27l.63-3h3.54ZM16,16.4H12.45L15,4.36h3.54Z"/><path class="cls-1" d="M25.74,0l-.92,4.36h2.91q3.52,0,4.68,1.85a5.36,5.36,0,0,1,.52,4,7.27,7.27,0,0,1-4,5.43,8.13,8.13,0,0,1-3.51.73H18.92L22.37,0Zm.59,7h-2l-1.45,6.85h2.32A4.46,4.46,0,0,0,28,13a4.4,4.4,0,0,0,1.34-2.58A3.09,3.09,0,0,0,29,7.77,3.56,3.56,0,0,0,26.33,7Z"/><path class="cls-1" d="M36.24,4.36h5.67c1.75,0,2.74.42,3,1.25a3.92,3.92,0,0,1,0,1.79l-.42,2H41.21l.32-1.55c.11-.51.07-.85-.13-1a1.94,1.94,0,0,0-1.09-.19H39.12l-2,9.73H33.7Z"/><path class="cls-1" d="M47.91,4.36h6.9q5.27,0,4.32,4.5L57.54,16.4H48.48q-4,0-3.22-3.48a4.32,4.32,0,0,1,2.1-3.1,8,8,0,0,1,3.81-.73h4.44l.06-.29c.17-.81,0-1.36-.59-1.65A4.87,4.87,0,0,0,53,6.86H47.39ZM50.37,14h4.21l.53-2.5h-4a4,4,0,0,0-1.5.22,1.46,1.46,0,0,0-.86,1.13c-.11.5,0,.83.34,1A3.5,3.5,0,0,0,50.37,14Z"/><path class="cls-1" d="M63,4.36h5.67c1.75,0,2.74.42,3,1.25a3.92,3.92,0,0,1-.05,1.79l-.42,2H68l.33-1.55c.1-.51.06-.85-.14-1a1.94,1.94,0,0,0-1.09-.19H65.91L63.85,16.4H60.48Z"/><path class="cls-1" d="M77.92,13.75h2.71l2-9.39H86L83.51,16.08c-.66,3.12-2.58,4.68-5.78,4.68H71.11l.51-2.44h6A2.11,2.11,0,0,0,80,16.61l0-.21h-3c-2.47,0-3.93-.63-4.35-1.9a5.25,5.25,0,0,1,0-2.71l1.57-7.43h3.35l-1.52,7.18c-.23,1.13-.11,1.8.38,2A3.62,3.62,0,0,0,77.92,13.75Z"/><path class="cls-2" d="M89.17,7.43h2.89l-.6,2.85H88.57Zm-1.29,6.12h2.89l-.6,2.85H87.28Z"/><path class="cls-2" d="M94.31,7.43h2.88l-.6,2.85H93.71ZM93,13.55H95.9l-.6,2.85H92.42Z"/><path class="cls-2" d="M116.61,2.92h-9c-1.88,0-3,.72-3.27,2.15-.25,1.19.39,1.79,1.93,1.79h4.85q3.89,0,4.56,1.92a5,5,0,0,1,0,2.7q-1,4.92-7.11,4.92H98.79l.62-2.92h9.15a5.34,5.34,0,0,0,2-.3,2,2,0,0,0,1.19-1.55c.16-.76,0-1.28-.41-1.56a3.42,3.42,0,0,0-1.78-.34h-4.32a6.26,6.26,0,0,1-4-1c-.89-.76-1.15-2-.79-3.71A5.6,5.6,0,0,1,104.87.29,12.24,12.24,0,0,1,107.65,0h9.57Z"/><path class="cls-2" d="M124,2.88h-5.61L119,0h15l-.6,2.86h-5.64L124.92,16.4h-3.79Z"/><path class="cls-2" d="M139.23,16.4a9.73,9.73,0,0,1-4-.6A3.74,3.74,0,0,1,133,12.39a10.41,10.41,0,0,1,.29-2.63L135.38,0H139l-2,9.65c-.32,1.51-.33,2.5,0,3a2.59,2.59,0,0,0,2,1c.32,0,.7,0,1.14,0h4.31l-.57,2.72Z"/><path class="cls-2" d="M155.38,16.4h-9.57L149.27,0h8.94c2.12,0,3.55.25,4.29.76a3.1,3.1,0,0,1,1.22,3.51,5.45,5.45,0,0,1-3.42,3.94,3,3,0,0,1,1.86,3.71Q161.22,16.41,155.38,16.4ZM152.3,2.94l-.8,3.79h5.36q2.38,0,2.79-1.89c.27-1.26-.4-1.9-2-1.9Zm3.18,10.56c1.6,0,2.54-.64,2.81-1.91s-.39-1.94-2-1.94h-5.41l-.81,3.85Z"/></g></g></svg>